<svg xmlns="http://www.w3.org/2000/svg" viewBox="0 0 660 464"><defs><linearGradient id="bg" x2="1" y2="1"><stop stop-color="#8939a9"/><stop offset="1" stop-color="#271837"/></linearGradient></defs><rect width="660" height="464" rx="28" fill="url(#bg)"/><rect x="48" y="48" width="564" height="368" rx="20" fill="#171321" stroke="#ffffff" stroke-opacity=".16"/><rect x="74" y="72" width="512" height="34" rx="9" fill="#282036"/><circle cx="94" cy="89" r="5" fill="#e77cff"/><rect x="122" y="83" width="166" height="11" rx="5" fill="#d8c9e4"/><rect x="74" y="127" width="315" height="260" rx="14" fill="#211a2d"/><path d="M94 335c44-34 69-3 104-52s63-22 91-70 53-48 81-68v218H94Z" fill="#9d5fc0" opacity=".25"/><path d="M94 335c44-34 69-3 104-52s63-22 91-70 53-48 81-68" fill="none" stroke="#d28df2" stroke-width="7" stroke-linecap="round"/><path d="M94 353h265M94 314h265M94 275h265M94 236h265M94 197h265M94 158h265" stroke="#ffffff" stroke-opacity=".08"/><rect x="409" y="127" width="177" height="121" rx="14" fill="#211a2d"/><circle cx="497" cy="187" r="38" fill="none" stroke="#3a2a4a" stroke-width="15"/><path d="M497 149a38 38 0 0 1 36 50" fill="none" stroke="#d28df2" stroke-width="15" stroke-linecap="round"/><rect x="409" y="263" width="177" height="124" rx="14" fill="#211a2d"/><rect x="429" y="283" width="70" height="8" rx="4" fill="#c9b9d2"/><rect x="429" y="307" width="137" height="7" rx="3" fill="#6b5b75"/><rect x="429" y="326" width="108" height="7" rx="3" fill="#6b5b75"/><rect x="429" y="345" width="125" height="7" rx="3" fill="#6b5b75"/><rect x="429" y="364" width="89" height="7" rx="3" fill="#6b5b75"/></svg>